<svg width="353" height="484" viewBox="0 0 353 484" fill="none" xmlns="http://www.w3.org/2000/svg">
<g filter="url(#filter0_d_102_1109)">
<rect x="3" width="347" height="478" rx="11" fill="#FFFBE7"/>
</g>
<g clip-path="url(#clip0_102_1109)">
<rect x="17.9077" y="15.2066" width="317.185" height="447.588" rx="1" fill="#E7DCAF"/>
<mask id="mask0_102_1109" style="mask-type:alpha" maskUnits="userSpaceOnUse" x="-34" y="-20" width="417" height="537">
<path fill-rule="evenodd" clip-rule="evenodd" d="M102.19 125.223C90.7345 97.5471 65.6292 86.311 54.5085 84.1524C23.4876 106.607 25.3003 121.202 33.0285 139.968C33.6749 141.136 34.4749 144.609 32.5035 149.155C35.5786 145.991 39.3849 146.612 40.9036 147.318C66.5674 158.472 87.3324 151.629 102.19 125.223ZM82.9441 125.339C82.5479 126.636 81.486 127.626 80.5012 128.545L80.4286 128.613C80.1494 128.873 79.7 129.251 79.1759 129.692C77.8141 130.836 75.9478 132.405 75.2514 133.445C73.8222 135.579 76.2815 140.683 80.6386 139.335C84.1242 138.256 89.1355 132.31 91.2055 129.472C95.4957 121.487 84.6448 119.771 82.9441 125.339ZM65.3067 143.465C67.2936 145.319 70.5084 145.325 72.4873 143.478C74.4661 141.631 74.4596 138.63 72.4728 136.776C70.4859 134.922 67.2711 134.915 65.2922 136.762C63.3134 138.609 63.3199 141.61 65.3067 143.465Z" fill="url(#paint0_angular_102_1109)"/>
<path fill-rule="evenodd" clip-rule="evenodd" d="M57.0196 78.9059C68.7878 81.9122 95.5782 95.224 108.594 124.421C119.659 123.754 141.454 93.7507 106.799 80.38C107.82 76.9763 112.352 74.1759 114.491 73.2013C115.547 72.8689 117.554 71.9099 117.135 70.7333C116.611 69.2626 112.16 65.1075 108.847 65.523C108.224 68.8414 104.501 76.1219 104.061 76.2237C104.022 76.2328 103.799 75.971 103.409 75.5129C99.4548 70.8669 78.3164 46.0313 57.0196 78.9059ZM77.424 67.0356C79.8861 65.6731 87.4308 65.4539 97.913 75.4773C97.6613 77.9577 97.4924 79.1444 97.4394 79.4278C93.2871 75.6853 83.4707 67.9674 77.424 67.0356ZM96.1831 87.8422C84.0931 74.9945 74.3401 71.6883 70.9749 71.6412L73.6014 69.1897C84.8928 72.8612 93.7175 80.3654 96.7184 83.6585C96.8513 83.8648 96.9302 84.9903 96.1831 87.8422ZM65.7206 76.3244C71.209 77.6838 79.1315 80.0419 94.6116 95.7642L95.2432 91.4696C90.5669 86.8034 78.6919 76.7037 68.6025 73.6345L65.7206 76.3244Z" fill="url(#paint1_angular_102_1109)"/>
<path fill-rule="evenodd" clip-rule="evenodd" d="M263.319 131.847C233.811 141.618 221.335 164.406 218.785 174.579C241.75 203.747 257.208 202.485 277.216 195.896C278.466 195.334 282.154 194.695 286.908 196.635C283.64 193.718 284.388 190.232 285.171 188.855C297.573 165.55 290.849 146.253 263.319 131.847ZM266.35 151.882L266.35 151.882L266.42 151.951C266.688 152.215 267.076 152.639 267.528 153.133L267.528 153.133C268.704 154.417 270.315 156.177 271.395 156.847C273.613 158.22 279.06 156.101 277.743 152.056C276.689 148.821 270.534 144.047 267.588 142.064C259.263 137.897 257.188 147.828 263.025 149.547C264.384 149.947 265.404 150.951 266.35 151.882ZM281.712 166.265C283.719 164.488 283.803 161.53 281.901 159.658C279.998 157.785 276.828 157.708 274.821 159.485C272.814 161.261 272.73 164.219 274.633 166.092C276.536 167.964 279.705 168.042 281.712 166.265Z" fill="url(#paint2_angular_102_1109)"/>
<path fill-rule="evenodd" clip-rule="evenodd" d="M213.372 172.206C216.834 161.456 231.55 137.165 262.717 125.996C262.28 115.791 231.106 94.8928 216.137 126.422C212.565 125.388 209.716 121.138 208.738 119.142C208.412 118.16 207.448 116.286 206.194 116.639C204.628 117.08 200.129 121.062 200.488 124.123C203.979 124.789 211.582 128.419 211.679 128.827C211.688 128.863 211.405 129.061 210.912 129.407C205.907 132.918 179.152 151.686 213.372 172.206ZM201.306 153.119C199.926 150.813 199.877 143.858 210.728 134.483C213.344 134.784 214.595 134.973 214.893 135.029C210.836 138.749 202.438 147.576 201.306 153.119ZM223.747 136.405C209.87 147.184 206.138 156.075 206.006 159.173L203.478 156.686C207.634 146.388 215.782 138.468 219.336 135.796C219.558 135.679 220.75 135.638 223.747 136.405ZM210.817 164.13C212.388 159.113 215.073 151.88 232.073 138.058L227.547 137.357C222.5 141.534 211.533 152.192 208.043 161.401L210.817 164.13Z" fill="url(#paint3_angular_102_1109)"/>
<path fill-rule="evenodd" clip-rule="evenodd" d="M173.197 2.06559C143.914 12.4971 131.953 35.5607 129.632 45.7886C153.248 74.4354 168.675 72.8265 188.53 65.7893C189.767 65.1991 193.44 64.4769 198.236 66.3102C194.904 63.4666 195.574 59.9654 196.325 58.5703C208.202 34.9922 201.045 15.8499 173.197 2.06559ZM173.259 19.7797C174.628 20.1497 175.671 21.1312 176.638 22.0413L176.709 22.1084C176.984 22.3665 177.381 22.7817 177.845 23.2659C179.049 24.524 180.7 26.2482 181.796 26.8934C184.045 28.2177 189.447 25.9749 188.038 21.959C186.911 18.7464 180.647 14.1095 177.656 12.1926C169.234 8.21112 167.382 18.1916 173.259 19.7797ZM192.344 36.0871C194.31 34.2657 194.328 31.3065 192.383 29.4773C190.439 27.6482 187.268 27.6419 185.302 29.4633C183.335 31.2846 183.317 34.2439 185.262 36.073C187.206 37.9021 190.377 37.9084 192.344 36.0871Z" fill="url(#paint4_angular_102_1109)"/>
<path fill-rule="evenodd" clip-rule="evenodd" d="M124.108 43.4678C127.326 32.6467 141.488 8.03883 172.386 -3.82359C171.721 -14.0121 140.095 -34.1986 125.843 -2.35182C122.25 -3.3051 119.307 -7.48877 118.284 -9.46145C117.937 -10.4349 116.931 -12.2865 115.686 -11.9056C114.13 -11.4295 109.724 -7.34858 110.151 -4.29777C113.655 -3.71052 121.335 -0.253354 121.441 0.151789C121.451 0.18815 121.173 0.392218 120.688 0.749272C115.764 4.37054 89.4458 23.7282 124.108 43.4678ZM111.634 24.6397C110.203 22.3674 109.998 15.4205 120.628 5.81125C123.248 6.05319 124.502 6.21354 124.801 6.26347C120.831 10.0709 112.64 19.0767 111.634 24.6397ZM133.687 7.45248C120.067 18.5305 116.538 27.496 116.476 30.594L113.895 28.1659C117.815 17.7855 125.777 9.69185 129.268 6.94255C129.486 6.82104 130.676 6.75293 133.687 7.45248ZM121.405 35.4486C122.861 30.4013 125.381 23.117 142.052 8.92943L137.515 8.33034C132.568 12.6165 121.852 23.508 118.573 32.7844L121.405 35.4486Z" fill="url(#paint5_angular_102_1109)"/>
<path fill-rule="evenodd" clip-rule="evenodd" d="M154.822 200.855C150.333 180.589 134.55 169.902 127.22 167.092C103.347 178.688 102.829 188.867 105.846 202.604C106.147 203.479 106.275 205.945 104.382 208.811C106.862 207.021 109.385 207.903 110.337 208.567C126.51 219.265 141.506 217.091 154.822 200.855ZM141.614 198.41C141.186 199.251 140.339 199.802 139.554 200.312L139.496 200.35C139.273 200.495 138.92 200.699 138.508 200.938C137.437 201.558 135.969 202.408 135.366 203.037C134.13 204.326 135.198 208.122 138.345 207.724C140.863 207.405 145.014 203.935 146.774 202.24C150.677 197.285 143.452 194.799 141.614 198.41ZM127.318 208.787C128.451 210.291 130.643 210.682 132.215 209.66C133.787 208.637 134.144 206.589 133.011 205.086C131.879 203.582 129.686 203.191 128.114 204.213C126.542 205.236 126.186 207.284 127.318 208.787Z" fill="url(#paint6_angular_102_1109)"/>
<path fill-rule="evenodd" clip-rule="evenodd" d="M129.978 163.535C137.626 166.992 154.258 179.263 159.613 200.694C167.222 201.566 185.651 183.759 163.674 170.506C164.777 168.311 168.197 166.949 169.769 166.542C170.527 166.442 172.008 166.03 171.864 165.179C171.684 164.115 169.153 160.754 166.85 160.64C166.028 162.823 162.621 167.332 162.31 167.349C162.282 167.35 162.161 167.145 161.951 166.787C159.818 163.151 148.413 143.714 129.978 163.535ZM145.424 157.975C147.255 157.345 152.396 158.098 158.304 166.152C157.837 167.805 157.58 168.59 157.511 168.776C155.143 165.74 149.411 159.33 145.424 157.975ZM155.571 174.382C148.915 164.224 142.703 160.816 140.428 160.382L142.5 159.033C149.711 162.872 154.793 169.016 156.433 171.608C156.498 171.764 156.417 172.537 155.571 174.382ZM136.239 162.983C139.792 164.56 144.874 167.104 153.477 179.612L154.418 176.776C151.809 173.054 144.975 164.789 138.511 161.503L136.239 162.983Z" fill="url(#paint7_angular_102_1109)"/>
<path fill-rule="evenodd" clip-rule="evenodd" d="M286.125 37.602C281.635 17.3361 265.853 6.64907 258.522 3.8388C234.65 15.4347 234.131 25.6133 237.149 39.3503C237.449 40.2255 237.577 42.6922 235.685 45.5578C238.164 43.7679 240.688 44.6493 241.639 45.3138C257.813 56.0118 272.808 53.8379 286.125 37.602ZM272.917 35.1566C272.489 35.9977 271.642 36.5484 270.857 37.059L270.799 37.0967C270.576 37.2416 270.223 37.4462 269.81 37.6849C268.739 38.3051 267.272 39.155 266.669 39.7834C265.432 41.0732 266.501 44.8683 269.648 44.4705C272.166 44.1522 276.316 40.682 278.077 38.9868C281.98 34.0321 274.754 31.5459 272.917 35.1566ZM258.621 45.5342C259.753 47.0382 261.946 47.4287 263.518 46.4064C265.09 45.3842 265.446 43.3363 264.314 41.8323C263.181 40.3283 260.989 39.9378 259.417 40.9601C257.845 41.9824 257.488 44.0303 258.621 45.5342Z" fill="url(#paint8_angular_102_1109)"/>
<path fill-rule="evenodd" clip-rule="evenodd" d="M261.281 0.281911C268.928 3.73857 285.561 16.0097 290.915 37.4411C298.524 38.3132 316.953 20.5062 294.977 7.25232C296.079 5.05809 299.499 3.69552 301.071 3.28851C301.83 3.18886 303.311 2.77681 303.167 1.92582C302.987 0.862079 300.456 -2.49937 298.152 -2.61366C297.33 -0.429921 293.924 4.07876 293.612 4.09535C293.584 4.09684 293.464 3.89194 293.254 3.53343C291.12 -0.102579 279.716 -19.5391 261.281 0.281911ZM276.726 -5.27835C278.558 -5.90865 283.699 -5.15566 289.606 2.8987C289.139 4.55172 288.883 5.33684 288.813 5.52277C286.446 2.48696 280.714 -3.9234 276.726 -5.27835ZM286.873 11.1289C280.217 0.970387 274.005 -2.43724 271.731 -2.87124L273.803 -4.22026C281.014 -0.381063 286.096 5.76302 287.735 8.35516C287.801 8.51095 287.72 9.28381 286.873 11.1289ZM267.541 -0.270737C271.095 1.30627 276.177 3.851 284.78 16.3588L285.72 13.5226C283.111 9.80063 276.277 1.53534 269.813 -1.75027L267.541 -0.270737Z" fill="url(#paint9_angular_102_1109)"/>
<path fill-rule="evenodd" clip-rule="evenodd" d="M362.703 91.5211C349.839 66.4079 325.411 57.7701 314.805 56.5904C287.388 80.037 290.202 93.602 298.888 110.633C299.584 111.681 300.599 114.882 299.094 119.3C301.741 116.095 305.362 116.388 306.842 116.935C331.788 125.453 350.764 117.446 362.703 91.5211ZM344.682 93.2288C344.409 94.4746 343.489 95.4838 342.636 96.4197L342.573 96.4887C342.331 96.7542 341.939 97.1424 341.481 97.5952L341.481 97.5953L341.481 97.5954C340.292 98.7719 338.662 100.384 338.088 101.412C336.911 103.52 339.604 108.118 343.585 106.523C346.77 105.247 351.014 99.2926 352.739 96.4748C356.152 88.664 345.852 87.8805 344.682 93.2288ZM329.549 111.513C331.556 113.103 334.575 112.863 336.293 110.978C338.011 109.093 337.776 106.275 335.769 104.685C333.762 103.095 330.742 103.334 329.025 105.22C327.307 107.105 327.542 109.922 329.549 111.513Z" fill="url(#paint10_angular_102_1109)"/>
<path fill-rule="evenodd" clip-rule="evenodd" d="M316.5 51.6645C327.793 53.5935 353.997 64.0663 368.461 90.5255C378.813 89.0541 397.016 59.1822 363.414 49.2539C364.114 45.9757 368.162 42.9971 370.098 41.9176C371.066 41.5245 372.879 40.4698 372.396 39.3955C371.791 38.0526 367.289 34.4855 364.207 35.1287C363.874 38.2963 360.929 45.4255 360.523 45.5548C360.487 45.5664 360.257 45.3372 359.856 44.9362C355.784 40.8696 334.015 19.1308 316.5 51.6645ZM334.696 38.9014C336.91 37.4302 343.997 36.6474 354.633 45.2863C354.585 47.6415 354.517 48.7721 354.489 49.043C350.293 45.8356 340.461 39.317 334.696 38.9014ZM353.994 57.0299C341.627 45.8509 332.189 43.4816 329.016 43.6943L331.302 41.1842C342.217 43.7801 351.101 50.1749 354.179 53.0478C354.32 53.232 354.48 54.2862 353.994 57.0299ZM324.462 48.4694C329.736 49.3309 337.379 50.9473 353.163 64.579L353.43 60.484C348.668 56.4445 336.71 47.8354 326.971 45.7145L324.462 48.4694Z" fill="url(#paint11_angular_102_1109)"/>
<path fill-rule="evenodd" clip-rule="evenodd" d="M69.0714 319.235C59.2795 300.944 41.2058 294.92 33.3929 294.194C13.5503 311.797 15.7997 321.732 22.4121 334.137C22.9377 334.898 23.7271 337.237 22.6798 340.505C24.5825 338.114 27.2485 338.281 28.3437 338.663C46.7967 344.593 60.6402 338.453 69.0714 319.235ZM55.851 320.753C55.6672 321.672 55.0047 322.426 54.3903 323.125L54.345 323.177C54.1708 323.375 53.8877 323.665 53.5574 324.004L53.5573 324.004L53.5572 324.005C52.699 324.885 51.5228 326.092 51.115 326.854C50.278 328.42 52.3182 331.762 55.2223 330.537C57.5456 329.557 60.5853 325.125 61.8148 323.031C64.2192 317.245 56.6399 316.807 55.851 320.753ZM44.9788 334.384C46.4757 335.526 48.6924 335.31 49.9301 333.901C51.1677 332.492 50.9576 330.424 49.4607 329.282C47.9639 328.139 45.7472 328.356 44.5095 329.765C43.2719 331.173 43.482 333.242 44.9788 334.384Z" fill="url(#paint12_angular_102_1109)"/>
<path fill-rule="evenodd" clip-rule="evenodd" d="M34.5266 290.578C42.8574 291.846 62.2663 299.199 73.2559 318.463C80.8488 317.243 93.8363 295.033 68.9944 288.18C69.4652 285.76 72.402 283.516 73.8115 282.696C74.5176 282.394 75.8375 281.594 75.4675 280.811C75.005 279.831 71.6466 277.268 69.3885 277.782C69.186 280.116 67.1153 285.398 66.8188 285.498C66.7922 285.507 66.6204 285.342 66.3198 285.052C63.2709 282.116 46.973 266.42 34.5266 290.578ZM47.7244 280.941C49.3335 279.829 54.5364 279.159 62.4751 285.372C62.4715 287.106 62.4363 287.938 62.4191 288.138C59.29 285.834 51.9704 281.17 47.7244 280.941ZM62.1698 294.015C52.9225 285.955 45.9481 284.338 43.6168 284.537L45.2652 282.66C53.329 284.424 59.9499 289.01 62.2524 291.083C62.3585 291.216 62.4906 291.99 62.1698 294.015ZM40.3387 288.105C44.2301 288.669 49.8745 289.756 61.6681 299.575L61.8097 296.559C58.2528 293.65 49.3407 287.475 42.1479 286.045L40.3387 288.105Z" fill="url(#paint13_angular_102_1109)"/>
<path fill-rule="evenodd" clip-rule="evenodd" d="M34.2968 194.942C4.37286 203.443 -9.08053 225.691 -12.0667 235.753C9.64115 265.904 25.1514 265.306 45.4394 259.578C46.7131 259.07 50.428 258.589 55.0975 260.733C51.9558 257.676 52.8536 254.223 53.6951 252.879C67.0973 230.112 61.2033 210.528 34.2968 194.942ZM33.3206 212.603C34.6613 213.062 35.6369 214.109 36.5417 215.079L36.6084 215.151C36.865 215.426 37.2342 215.866 37.6648 216.379L37.665 216.379C38.7839 217.713 40.3174 219.54 41.368 220.255C43.5241 221.722 49.0566 219.839 47.9143 215.742C47.0004 212.465 41.0571 207.432 38.1997 205.325C30.0631 200.804 27.5646 210.636 33.3206 212.603ZM51.2395 230.098C53.3227 228.408 53.5341 225.453 51.7118 223.499C49.8894 221.545 46.7233 221.332 44.6401 223.022C42.5568 224.712 42.3454 227.667 44.1678 229.621C45.9901 231.575 49.1562 231.788 51.2395 230.098Z" fill="url(#paint14_angular_102_1109)"/>
<path fill-rule="evenodd" clip-rule="evenodd" d="M-17.2603 233.278C-13.3342 222.671 2.43423 198.999 34.0988 189.164C34.1004 178.935 3.80761 156.684 -12.5251 187.587C-16.0544 186.399 -18.7223 182.024 -19.6151 179.985C-19.8987 178.989 -20.7832 177.072 -22.0525 177.371C-23.6391 177.745 -28.3112 181.536 -28.084 184.614C-24.6194 185.431 -17.1686 189.39 -17.0892 189.802C-17.0821 189.838 -17.3728 190.024 -17.8814 190.349C-23.0403 193.647 -50.6174 211.275 -17.2603 233.278ZM-28.5378 213.707C-29.821 211.339 -29.5704 204.371 -18.3018 195.449C-15.6952 195.863 -14.4511 196.106 -14.1549 196.176C-18.3776 199.727 -27.1659 208.204 -28.5378 213.707ZM-5.36811 197.91C-19.7288 208.108 -23.8491 216.853 -24.1141 219.951L-26.5389 217.35C-21.9339 207.215 -13.4332 199.633 -9.75854 197.11C-9.53188 197.002 -8.33647 197.012 -5.36811 197.91ZM-19.5303 225.101C-17.7413 220.142 -14.7402 213.013 2.88101 199.899L-1.62144 199.001C-6.85644 202.969 -18.2994 213.173 -22.1913 222.248L-19.5303 225.101Z" fill="url(#paint15_angular_102_1109)"/>
<path fill-rule="evenodd" clip-rule="evenodd" d="M300.81 294.939C289.671 267.004 264.614 255.396 253.478 253.083C222.041 275.22 223.67 289.896 231.183 308.837C231.817 310.018 232.575 313.516 230.536 318.054C233.665 314.917 237.478 315.591 238.993 316.319C264.612 327.853 285.548 321.254 300.81 294.939ZM278.986 297.968L278.986 297.968L278.912 298.035C278.629 298.293 278.172 298.667 277.64 299.103L277.64 299.103C276.258 300.234 274.363 301.785 273.65 302.82C272.187 304.944 274.59 310.102 278.983 308.806C282.497 307.768 287.608 301.863 289.723 299.039C294.136 291.077 283.262 289.211 281.481 294.781C281.066 296.078 279.987 297.059 278.986 297.968ZM263.528 312.762C265.498 314.649 268.725 314.698 270.736 312.869C272.747 311.041 272.78 308.028 270.809 306.141C268.839 304.253 265.612 304.205 263.601 306.033C261.59 307.862 261.557 310.874 263.528 312.762Z" fill="url(#paint16_angular_102_1109)"/>
<path fill-rule="evenodd" clip-rule="evenodd" d="M256.118 247.821C267.89 250.993 294.606 264.704 307.288 294.18C318.403 293.655 340.671 263.826 306.063 249.952C307.132 246.549 311.718 243.797 313.877 242.847C314.941 242.527 316.968 241.591 316.563 240.405C316.057 238.921 311.643 234.693 308.313 235.066C307.644 238.389 303.812 245.648 303.369 245.744C303.329 245.753 303.109 245.487 302.724 245.022L302.724 245.022L302.724 245.022C298.816 240.307 277.924 215.103 256.118 247.821ZM276.768 236.181C279.257 234.846 286.831 234.725 297.218 244.92C296.933 247.406 296.748 248.595 296.691 248.878C292.573 245.069 282.824 237.196 276.768 236.181ZM295.31 257.311C283.346 244.261 273.603 240.816 270.227 240.725L272.895 238.299C284.177 242.131 292.933 249.776 295.901 253.12C296.032 253.329 296.097 254.459 295.31 257.311ZM264.886 245.362C270.375 246.798 278.294 249.268 293.62 265.246L294.31 260.945C289.679 256.202 277.896 245.913 267.813 242.701L264.886 245.362Z" fill="url(#paint17_angular_102_1109)"/>
<path fill-rule="evenodd" clip-rule="evenodd" d="M165.029 400.481C153.022 372.91 127.616 362.092 116.413 360.13C85.6871 383.239 87.7745 397.855 95.8763 416.55C96.5466 417.711 97.4134 421.183 95.518 425.783C98.5466 422.55 102.379 423.103 103.916 423.784C129.882 434.509 150.6 427.259 165.029 400.481ZM145.723 400.982C145.349 402.291 144.302 403.304 143.331 404.244L143.259 404.313C142.984 404.58 142.54 404.967 142.022 405.419L142.022 405.419C140.677 406.592 138.833 408.201 138.153 409.257C136.758 411.424 139.319 416.5 143.667 415.068C147.144 413.922 152.063 407.864 154.088 404.978C158.246 396.887 147.327 395.364 145.723 400.982ZM128.362 419.482C130.391 421.307 133.618 421.254 135.57 419.364C137.523 417.474 137.461 414.462 135.433 412.636C133.404 410.811 130.177 410.864 128.224 412.755C126.272 414.645 126.334 417.657 128.362 419.482Z" fill="url(#paint18_angular_102_1109)"/>
<path fill-rule="evenodd" clip-rule="evenodd" d="M118.779 354.866C130.65 357.669 157.795 370.543 171.399 399.621C182.497 398.748 203.831 368.222 168.789 355.433C169.751 351.996 174.251 349.101 176.38 348.084C177.434 347.73 179.432 346.731 178.99 345.557C178.437 344.09 173.891 340 170.573 340.477C170.008 343.821 166.403 351.199 165.964 351.31C165.924 351.32 165.696 351.061 165.296 350.608C161.24 346.016 139.559 321.466 118.779 354.866ZM139.03 342.562C141.478 341.148 149.052 340.789 159.764 350.665C159.557 353.161 159.409 354.356 159.361 354.641C155.122 350.959 145.12 343.387 139.03 342.562ZM158.263 363.108C145.883 350.425 136.025 347.283 132.644 347.297L135.237 344.787C146.647 348.267 155.649 355.643 158.724 358.896C158.861 359.101 158.961 360.23 158.263 363.108ZM127.462 352.09C133 353.355 141.002 355.578 156.841 371.088L157.397 366.762C152.613 362.161 140.499 352.233 130.307 349.335L127.462 352.09Z" fill="url(#paint19_angular_102_1109)"/>
<path fill-rule="evenodd" clip-rule="evenodd" d="M255.607 415.061C248.362 394.496 230.551 385.347 222.552 383.344C199.125 398.455 199.872 409.134 204.757 423.077C205.181 423.952 205.627 426.508 204.016 429.736C206.375 427.556 209.118 428.156 210.194 428.728C228.414 437.839 243.776 433.676 255.607 415.061ZM241.595 414.325C241.256 415.254 240.444 415.933 239.692 416.563L239.636 416.61C239.423 416.788 239.081 417.046 238.682 417.346L238.682 417.346C237.646 418.126 236.227 419.195 235.679 419.924C234.556 421.421 236.146 425.232 239.369 424.422C241.948 423.773 245.828 419.641 247.445 417.657C250.88 412.013 243.05 410.339 241.595 414.325ZM228.037 426.854C229.409 428.28 231.745 428.41 233.256 427.145C234.766 425.88 234.879 423.698 233.507 422.273C232.135 420.847 229.799 420.717 228.288 421.982C226.778 423.248 226.666 425.429 228.037 426.854Z" fill="url(#paint20_angular_102_1109)"/>
<path fill-rule="evenodd" clip-rule="evenodd" d="M224.721 379.537C233.151 382.18 252.088 392.893 260.401 414.606C268.463 414.554 285.463 393.614 260.817 382.55C261.691 380.118 265.092 378.261 266.683 377.637C267.463 377.437 268.958 376.819 268.699 375.948C268.377 374.859 265.306 371.668 262.884 371.84C262.302 374.226 259.314 379.368 258.99 379.425C258.961 379.43 258.81 379.231 258.545 378.883C255.854 375.355 241.471 356.492 224.721 379.537ZM240.046 371.736C241.886 370.843 247.368 370.978 254.582 378.66C254.302 380.45 254.134 381.304 254.084 381.508C251.218 378.63 244.397 372.648 240.046 371.736ZM252.818 387.58C244.549 377.789 237.603 375.01 235.164 374.845L237.165 373.169C245.212 376.272 251.321 382.06 253.369 384.566C253.457 384.721 253.471 385.541 252.818 387.58ZM231.148 378.056C235.075 379.256 240.729 381.275 251.343 393.282L251.969 390.192C248.759 386.625 240.541 378.837 233.343 376.217L231.148 378.056Z" fill="url(#paint21_angular_102_1109)"/>
<path fill-rule="evenodd" clip-rule="evenodd" d="M348.104 400.013C340.859 379.448 323.048 370.299 315.049 368.296C291.622 383.407 292.369 394.086 297.254 408.03C297.678 408.904 298.124 411.46 296.513 414.688C298.872 412.508 301.615 413.108 302.691 413.68C320.911 422.791 336.273 418.628 348.104 400.013ZM334.092 399.277C333.753 400.206 332.941 400.885 332.189 401.515L332.133 401.562C331.92 401.741 331.578 401.998 331.179 402.298C330.143 403.078 328.724 404.147 328.176 404.876C327.053 406.373 328.643 410.184 331.867 409.374C334.445 408.725 338.325 404.594 339.943 402.609C343.377 396.965 335.547 395.292 334.092 399.277ZM320.534 411.806C321.906 413.232 324.242 413.362 325.753 412.097C327.263 410.832 327.376 408.65 326.004 407.225C324.632 405.799 322.296 405.669 320.786 406.935C319.275 408.2 319.163 410.381 320.534 411.806Z" fill="url(#paint22_angular_102_1109)"/>
<path fill-rule="evenodd" clip-rule="evenodd" d="M317.218 364.489C325.648 367.132 344.585 377.845 352.898 399.559C360.96 399.506 377.96 378.566 353.314 367.503C354.188 365.07 357.589 363.213 359.18 362.589C359.96 362.389 361.455 361.771 361.197 360.9C360.874 359.811 357.803 356.62 355.381 356.792C354.799 359.178 351.811 364.32 351.487 364.377C351.458 364.382 351.307 364.183 351.042 363.835C348.351 360.307 333.969 341.444 317.218 364.489ZM332.543 356.688C334.383 355.795 339.865 355.931 347.079 363.612C346.799 365.402 346.631 366.256 346.581 366.46C343.715 363.582 336.894 357.6 332.543 356.688ZM345.315 372.532C337.046 362.741 330.101 359.962 327.661 359.797L329.662 358.121C337.709 361.224 343.818 367.012 345.866 369.518C345.954 369.673 345.968 370.493 345.315 372.532ZM323.645 363.008C327.573 364.208 333.226 366.227 343.84 378.235L344.466 375.144C341.256 371.577 333.038 363.789 325.84 361.169L323.645 363.008Z" fill="url(#paint23_angular_102_1109)"/>
<path fill-rule="evenodd" clip-rule="evenodd" d="M63.322 475.43C56.0763 454.865 38.2659 445.716 30.2664 443.713C6.83946 458.824 7.58699 469.503 12.4716 483.446C12.8958 484.321 13.3416 486.877 11.731 490.105C14.0899 487.925 16.8325 488.525 17.909 489.097C36.1286 498.208 51.4903 494.045 63.322 475.43ZM49.3095 474.694C48.9705 475.623 48.1589 476.302 47.4063 476.932L47.3508 476.979C47.1375 477.157 46.7957 477.415 46.3972 477.715L46.3969 477.715C45.3611 478.495 43.9415 479.564 43.3941 480.293C42.2705 481.79 43.8606 485.601 47.0842 484.791C49.6631 484.142 53.5427 480.01 55.1602 478.026C58.5948 472.382 50.765 470.708 49.3095 474.694ZM35.7519 487.223C37.1236 488.649 39.46 488.779 40.9704 487.514C42.4808 486.249 42.5933 484.067 41.2217 482.642C39.85 481.216 37.5136 481.086 36.0032 482.351C34.4928 483.617 34.3803 485.798 35.7519 487.223Z" fill="url(#paint24_angular_102_1109)"/>
<path fill-rule="evenodd" clip-rule="evenodd" d="M32.4359 439.906C40.8653 442.548 59.8024 453.262 68.1155 474.975C76.1774 474.923 93.1774 453.983 68.5314 442.919C69.4054 440.487 72.8063 438.63 74.3975 438.006C75.1773 437.806 76.6724 437.188 76.4141 436.317C76.0912 435.228 73.0204 432.037 70.5986 432.209C70.0165 434.595 67.0284 439.737 66.7051 439.794C66.6761 439.799 66.5245 439.6 66.2592 439.252C63.5686 435.724 49.1861 416.861 32.4359 439.906ZM47.761 432.105C49.6004 431.212 55.0825 431.347 62.2964 439.029C62.017 440.819 61.8482 441.673 61.7987 441.877C58.9322 438.999 52.1115 433.017 47.761 432.105ZM60.5323 447.949C52.2636 438.158 45.3181 435.379 42.8789 435.214L44.8797 433.538C52.9268 436.641 59.0353 442.429 61.0837 444.935C61.172 445.09 61.1854 445.91 60.5323 447.949ZM38.8628 438.425C42.7901 439.625 48.4439 441.644 59.0577 453.651L59.6832 450.561C56.4737 446.994 48.2552 439.206 41.0577 436.586L38.8628 438.425Z" fill="url(#paint25_angular_102_1109)"/>
<path fill-rule="evenodd" clip-rule="evenodd" d="M158.491 497.727C151.246 477.161 133.435 468.013 125.436 466.009C102.009 481.12 102.756 491.8 107.641 505.743C108.065 506.617 108.511 509.174 106.9 512.401C109.259 510.221 112.002 510.821 113.078 511.394C131.298 520.504 146.66 516.341 158.491 497.727ZM144.479 496.991C144.14 497.919 143.328 498.599 142.576 499.229L142.52 499.275C142.307 499.454 141.965 499.711 141.567 500.011L141.566 500.011C140.531 500.791 139.111 501.86 138.563 502.589C137.44 504.086 139.03 507.898 142.254 507.087C144.833 506.438 148.712 502.307 150.33 500.322C153.764 494.678 145.934 493.005 144.479 496.991ZM130.921 509.52C132.293 510.945 134.629 511.075 136.14 509.81C137.65 508.545 137.763 506.364 136.391 504.938C135.019 503.513 132.683 503.383 131.173 504.648C129.662 505.913 129.55 508.094 130.921 509.52Z" fill="url(#paint26_angular_102_1109)"/>
<path fill-rule="evenodd" clip-rule="evenodd" d="M127.605 462.202C136.035 464.845 154.972 475.559 163.285 497.272C171.347 497.219 188.347 476.279 163.701 465.216C164.575 462.784 167.976 460.927 169.567 460.302C170.347 460.102 171.842 459.484 171.584 458.613C171.261 457.524 168.19 454.333 165.768 454.505C165.186 456.891 162.198 462.034 161.875 462.09C161.846 462.095 161.694 461.897 161.429 461.549L161.429 461.549C158.738 458.02 144.356 439.157 127.605 462.202ZM142.93 454.401C144.77 453.509 150.252 453.644 157.466 461.325C157.186 463.115 157.018 463.969 156.968 464.173C154.102 461.296 147.281 455.313 142.93 454.401ZM155.702 470.246C147.433 460.454 140.488 457.675 138.048 457.51L140.049 455.834C148.096 458.938 154.205 464.725 156.253 467.231C156.341 467.386 156.355 468.206 155.702 470.246ZM134.032 460.721C137.96 461.921 143.613 463.94 154.227 475.948L154.853 472.857C151.643 469.291 143.425 461.502 136.227 458.882L134.032 460.721Z" fill="url(#paint27_angular_102_1109)"/>
<path fill-rule="evenodd" clip-rule="evenodd" d="M171.965 259.578C152.905 270.247 147.331 287.632 146.927 294.99C166.656 312.06 177.155 309.131 190.083 301.921C190.87 301.367 193.33 300.435 196.868 301.141C194.225 299.563 194.277 297.059 194.633 296.004C200.088 278.273 192.879 265.853 171.965 259.578ZM173.877 271.901C174.872 271.997 175.713 272.557 176.493 273.076L176.55 273.114C176.772 273.261 177.097 273.503 177.476 273.785C178.462 274.518 179.814 275.522 180.652 275.842C182.372 276.497 185.862 274.3 184.409 271.673C183.246 269.571 178.344 267.085 176.038 266.105C169.713 264.33 169.604 271.49 173.877 271.901ZM189.145 281.021C190.293 279.528 189.957 277.477 188.395 276.439C186.834 275.401 184.637 275.769 183.49 277.261C182.342 278.754 182.677 280.805 184.239 281.843C185.801 282.881 187.997 282.513 189.145 281.021Z" fill="url(#paint28_angular_102_1109)"/>
<path fill-rule="evenodd" clip-rule="evenodd" d="M142.513 293.658C143.467 285.805 150.363 267.143 170.315 255.325C168.66 248.364 144.446 238.125 138.337 261.798C135.743 261.561 133.219 259.015 132.282 257.772C131.928 257.141 131.015 255.979 130.2 256.388C129.181 256.9 126.616 260.236 127.269 262.293C129.759 262.288 135.469 263.777 135.59 264.044C135.601 264.068 135.433 264.242 135.14 264.545C132.163 267.624 116.254 284.084 142.513 293.658ZM131.762 281.997C130.512 280.599 129.559 275.837 135.752 267.975C137.584 267.835 138.465 267.799 138.677 267.799C136.39 270.886 131.805 278.047 131.762 281.997ZM144.99 267.642C136.915 276.862 135.535 283.448 135.854 285.589L133.795 284.218C135.279 276.612 139.81 270.109 141.89 267.807C142.027 267.698 142.837 267.512 144.99 267.642ZM139.875 288.409C140.287 284.765 141.169 279.457 150.972 267.744L147.784 267.862C144.883 271.39 138.788 280.138 137.617 286.906L139.875 288.409Z" fill="url(#paint29_angular_102_1109)"/>
</mask>
<g mask="url(#mask0_102_1109)">
</g>
</g>
<defs>
<filter id="filter0_d_102_1109" x="0" y="0" width="353" height="484" filterUnits="userSpaceOnUse" color-interpolation-filters="sRGB">
<feFlood flood-opacity="0" result="BackgroundImageFix"/>
<feColorMatrix in="SourceAlpha" type="matrix" values="0 0 0 0 0 0 0 0 0 0 0 0 0 0 0 0 0 0 127 0" result="hardAlpha"/>
<feOffset dy="3"/>
<feGaussianBlur stdDeviation="1.5"/>
<feComposite in2="hardAlpha" operator="out"/>
<feColorMatrix type="matrix" values="0 0 0 0 0 0 0 0 0 0 0 0 0 0 0 0 0 0 0.2 0"/>
<feBlend mode="normal" in2="BackgroundImageFix" result="effect1_dropShadow_102_1109"/>
<feBlend mode="normal" in="SourceGraphic" in2="effect1_dropShadow_102_1109" result="shape"/>
</filter>
<radialGradient id="paint0_angular_102_1109" cx="0" cy="0" r="1" gradientUnits="userSpaceOnUse" gradientTransform="translate(66.769 71.1372) rotate(98.6527) scale(111.812 96.8808)">
<stop offset="0.0663328" stop-color="#FFEFB7"/>
<stop offset="0.94461" stop-color="#FFB7B7"/>
</radialGradient>
<radialGradient id="paint1_angular_102_1109" cx="0" cy="0" r="1" gradientUnits="userSpaceOnUse" gradientTransform="translate(94.8554 41.0798) rotate(83.8363) scale(93.8912 83.1182)">
<stop offset="0.0663328" stop-color="#FFEFB7"/>
<stop offset="0.94461" stop-color="#FFB7B7"/>
</radialGradient>
<radialGradient id="paint2_angular_102_1109" cx="0" cy="0" r="1" gradientUnits="userSpaceOnUse" gradientTransform="translate(205.336 162.935) rotate(9.06066) scale(117.814 89.4201)">
<stop offset="0.0663328" stop-color="#FFEFB7"/>
<stop offset="0.94461" stop-color="#FFB7B7"/>
</radialGradient>
<radialGradient id="paint3_angular_102_1109" cx="0" cy="0" r="1" gradientUnits="userSpaceOnUse" gradientTransform="translate(174.32 136.323) rotate(-3.86599) scale(99.1074 76.6478)">
<stop offset="0.0663328" stop-color="#FFEFB7"/>
<stop offset="0.94461" stop-color="#FFB7B7"/>
</radialGradient>
<radialGradient id="paint4_angular_102_1109" cx="0" cy="0" r="1" gradientUnits="userSpaceOnUse" gradientTransform="translate(115.924 34.4495) rotate(7.77365) scale(117.82 89.4244)">
<stop offset="0.0663328" stop-color="#FFEFB7"/>
<stop offset="0.94461" stop-color="#FFB7B7"/>
</radialGradient>
<radialGradient id="paint5_angular_102_1109" cx="0" cy="0" r="1" gradientUnits="userSpaceOnUse" gradientTransform="translate(84.2725 8.48278) rotate(-5.15297) scale(99.0754 76.6229)">
<stop offset="0.0663328" stop-color="#FFEFB7"/>
<stop offset="0.94461" stop-color="#FFB7B7"/>
</radialGradient>
<radialGradient id="paint6_angular_102_1109" cx="0" cy="0" r="1" gradientUnits="userSpaceOnUse" gradientTransform="translate(137.154 159.68) rotate(108.646) scale(77.4978 67.1307)">
<stop offset="0.0663328" stop-color="#FFEFB7"/>
<stop offset="0.94461" stop-color="#FFB7B7"/>
</radialGradient>
<radialGradient id="paint7_angular_102_1109" cx="0" cy="0" r="1" gradientUnits="userSpaceOnUse" gradientTransform="translate(160.261 142.323) rotate(93.8366) scale(64.8936 57.4255)">
<stop offset="0.0663328" stop-color="#FFEFB7"/>
<stop offset="0.94461" stop-color="#FFB7B7"/>
</radialGradient>
<radialGradient id="paint8_angular_102_1109" cx="0" cy="0" r="1" gradientUnits="userSpaceOnUse" gradientTransform="translate(268.457 -3.57373) rotate(108.646) scale(77.4978 67.1307)">
<stop offset="0.0663328" stop-color="#FFEFB7"/>
<stop offset="0.94461" stop-color="#FFB7B7"/>
</radialGradient>
<radialGradient id="paint9_angular_102_1109" cx="0" cy="0" r="1" gradientUnits="userSpaceOnUse" gradientTransform="translate(291.564 -20.9305) rotate(93.8366) scale(64.8936 57.4255)">
<stop offset="0.0663328" stop-color="#FFEFB7"/>
<stop offset="0.94461" stop-color="#FFB7B7"/>
</radialGradient>
<radialGradient id="paint10_angular_102_1109" cx="0" cy="0" r="1" gradientUnits="userSpaceOnUse" gradientTransform="translate(325.325 43.4358) rotate(94.0147) scale(105.33 91.2632)">
<stop offset="0.0663328" stop-color="#FFEFB7"/>
<stop offset="0.94461" stop-color="#FFB7B7"/>
</radialGradient>
<radialGradient id="paint11_angular_102_1109" cx="0" cy="0" r="1" gradientUnits="userSpaceOnUse" gradientTransform="translate(349.187 13.2135) rotate(79.199) scale(88.5692 78.403)">
<stop offset="0.0663328" stop-color="#FFEFB7"/>
<stop offset="0.94461" stop-color="#FFB7B7"/>
</radialGradient>
<radialGradient id="paint12_angular_102_1109" cx="0" cy="0" r="1" gradientUnits="userSpaceOnUse" gradientTransform="translate(40.9517 284.383) rotate(92.9754) scale(77.4477 67.1035)">
<stop offset="0.0663328" stop-color="#FFEFB7"/>
<stop offset="0.94461" stop-color="#FFB7B7"/>
</radialGradient>
<radialGradient id="paint13_angular_102_1109" cx="0" cy="0" r="1" gradientUnits="userSpaceOnUse" gradientTransform="translate(58.0512 261.866) rotate(78.1601) scale(65.1441 57.6649)">
<stop offset="0.0663328" stop-color="#FFEFB7"/>
<stop offset="0.94461" stop-color="#FFB7B7"/>
</radialGradient>
<radialGradient id="paint14_angular_102_1109" cx="0" cy="0" r="1" gradientUnits="userSpaceOnUse" gradientTransform="translate(-25.0136 223.533) rotate(11.5219) scale(117.904 89.489)">
<stop offset="0.0663328" stop-color="#FFEFB7"/>
<stop offset="0.94461" stop-color="#FFB7B7"/>
</radialGradient>
<radialGradient id="paint15_angular_102_1109" cx="0" cy="0" r="1" gradientUnits="userSpaceOnUse" gradientTransform="translate(-54.7903 195.696) rotate(-1.40495) scale(99.253 76.7628)">
<stop offset="0.0663328" stop-color="#FFEFB7"/>
<stop offset="0.94461" stop-color="#FFB7B7"/>
</radialGradient>
<radialGradient id="paint16_angular_102_1109" cx="0" cy="0" r="1" gradientUnits="userSpaceOnUse" gradientTransform="translate(265.957 240.177) rotate(99.3993) scale(112.262 97.2701)">
<stop offset="0.0663328" stop-color="#FFEFB7"/>
<stop offset="0.94461" stop-color="#FFB7B7"/>
</radialGradient>
<radialGradient id="paint17_angular_102_1109" cx="0" cy="0" r="1" gradientUnits="userSpaceOnUse" gradientTransform="translate(294.589 210.349) rotate(84.583) scale(94.2481 83.434)">
<stop offset="0.0663328" stop-color="#FFEFB7"/>
<stop offset="0.94461" stop-color="#FFB7B7"/>
</radialGradient>
<radialGradient id="paint18_angular_102_1109" cx="0" cy="0" r="1" gradientUnits="userSpaceOnUse" gradientTransform="translate(128.481 346.84) rotate(97.6053) scale(112.254 97.2637)">
<stop offset="0.0663328" stop-color="#FFEFB7"/>
<stop offset="0.94461" stop-color="#FFB7B7"/>
</radialGradient>
<radialGradient id="paint19_angular_102_1109" cx="0" cy="0" r="1" gradientUnits="userSpaceOnUse" gradientTransform="translate(156.075 316.191) rotate(82.789) scale(94.291 83.4719)">
<stop offset="0.0663328" stop-color="#FFEFB7"/>
<stop offset="0.94461" stop-color="#FFB7B7"/>
</radialGradient>
<radialGradient id="paint20_angular_102_1109" cx="0" cy="0" r="1" gradientUnits="userSpaceOnUse" gradientTransform="translate(231.972 374.362) rotate(101.729) scale(81.3956 70.5257)">
<stop offset="0.0663328" stop-color="#FFEFB7"/>
<stop offset="0.94461" stop-color="#FFB7B7"/>
</radialGradient>
<radialGradient id="paint21_angular_102_1109" cx="0" cy="0" r="1" gradientUnits="userSpaceOnUse" gradientTransform="translate(253.676 353.541) rotate(86.913) scale(68.2892 60.4525)">
<stop offset="0.0663328" stop-color="#FFEFB7"/>
<stop offset="0.94461" stop-color="#FFB7B7"/>
</radialGradient>
<radialGradient id="paint22_angular_102_1109" cx="0" cy="0" r="1" gradientUnits="userSpaceOnUse" gradientTransform="translate(324.47 359.314) rotate(101.729) scale(81.3956 70.5257)">
<stop offset="0.0663328" stop-color="#FFEFB7"/>
<stop offset="0.94461" stop-color="#FFB7B7"/>
</radialGradient>
<radialGradient id="paint23_angular_102_1109" cx="0" cy="0" r="1" gradientUnits="userSpaceOnUse" gradientTransform="translate(346.173 338.494) rotate(86.913) scale(68.2892 60.4526)">
<stop offset="0.0663328" stop-color="#FFEFB7"/>
<stop offset="0.94461" stop-color="#FFB7B7"/>
</radialGradient>
<radialGradient id="paint24_angular_102_1109" cx="0" cy="0" r="1" gradientUnits="userSpaceOnUse" gradientTransform="translate(39.6872 434.731) rotate(101.729) scale(81.3956 70.5258)">
<stop offset="0.0663328" stop-color="#FFEFB7"/>
<stop offset="0.94461" stop-color="#FFB7B7"/>
</radialGradient>
<radialGradient id="paint25_angular_102_1109" cx="0" cy="0" r="1" gradientUnits="userSpaceOnUse" gradientTransform="translate(61.391 413.91) rotate(86.913) scale(68.2892 60.4526)">
<stop offset="0.0663328" stop-color="#FFEFB7"/>
<stop offset="0.94461" stop-color="#FFB7B7"/>
</radialGradient>
<radialGradient id="paint26_angular_102_1109" cx="0" cy="0" r="1" gradientUnits="userSpaceOnUse" gradientTransform="translate(134.857 457.027) rotate(101.729) scale(81.3956 70.5257)">
<stop offset="0.0663328" stop-color="#FFEFB7"/>
<stop offset="0.94461" stop-color="#FFB7B7"/>
</radialGradient>
<radialGradient id="paint27_angular_102_1109" cx="0" cy="0" r="1" gradientUnits="userSpaceOnUse" gradientTransform="translate(156.56 436.207) rotate(86.913) scale(68.2892 60.4525)">
<stop offset="0.0663328" stop-color="#FFEFB7"/>
<stop offset="0.94461" stop-color="#FFB7B7"/>
</radialGradient>
<radialGradient id="paint28_angular_102_1109" cx="0" cy="0" r="1" gradientUnits="userSpaceOnUse" gradientTransform="translate(136.099 288.746) rotate(-1.8572) scale(82.7835 62.8432)">
<stop offset="0.0663328" stop-color="#FFEFB7"/>
<stop offset="0.94461" stop-color="#FFB7B7"/>
</radialGradient>
<radialGradient id="paint29_angular_102_1109" cx="0" cy="0" r="1" gradientUnits="userSpaceOnUse" gradientTransform="translate(110.895 274.157) rotate(-14.7889) scale(69.4099 53.6989)">
<stop offset="0.0663328" stop-color="#FFEFB7"/>
<stop offset="0.94461" stop-color="#FFB7B7"/>
</radialGradient>
<clipPath id="clip0_102_1109">
<rect x="17.9077" y="15.2066" width="317.185" height="447.588" rx="1" fill="white"/>
</clipPath>
</defs>
</svg>
